<svg width="44" height="44" viewBox="0 0 44 44" fill="none" xmlns="http://www.w3.org/2000/svg">
<circle opacity="0.1" cx="22" cy="22" r="22" fill="#FF9A32"/>
<path d="M30.9996 19C30.7344 19 30.48 19.1054 30.2925 19.2929C30.1049 19.4804 29.9996 19.7348 29.9996 20V24C29.9996 24.2652 30.1049 24.5196 30.2925 24.7071C30.48 24.8946 30.7344 25 30.9996 25C31.2648 25 31.5191 24.8946 31.7067 24.7071C31.8942 24.5196 31.9996 24.2652 31.9996 24V20C31.9996 19.7348 31.8942 19.4804 31.7067 19.2929C31.5191 19.1054 31.2648 19 30.9996 19ZM25.8296 16H22.7296L21.5896 18H25.8196C25.8822 18.0517 25.9314 18.1178 25.9628 18.1927C25.9941 18.2677 26.0068 18.3491 25.9996 18.43V25.57C26.0063 25.6499 25.9945 25.7303 25.965 25.8049C25.9355 25.8795 25.8892 25.9463 25.8296 26H22.9996L21.8496 28H25.8496C26.4554 27.9588 27.0207 27.6808 27.423 27.226C27.8254 26.7712 28.0325 26.1763 27.9996 25.57V18.43C28.0324 17.8204 27.8225 17.2226 27.4159 16.7673C27.0093 16.312 26.439 16.0361 25.8296 16ZM13.9996 25.57V18.43C13.9936 18.3501 14.0058 18.27 14.0352 18.1955C14.0647 18.121 14.1106 18.0542 14.1696 18H16.9996L18.1296 16H14.1296C13.5273 16.0462 12.9671 16.3264 12.569 16.7806C12.1708 17.2348 11.9664 17.8269 11.9996 18.43V25.57C11.9668 26.1796 12.1766 26.7774 12.5833 27.2327C12.9899 27.688 13.5602 27.9639 14.1696 28H17.2696L18.4096 26H14.1796C14.1169 25.9483 14.0678 25.8822 14.0364 25.8073C14.005 25.7323 13.9924 25.6509 13.9996 25.57Z" fill="#FF9A32"/>
<path d="M18.9998 29.9995C18.824 30.0002 18.651 29.9545 18.4984 29.8671C18.3459 29.7796 18.2191 29.6534 18.1308 29.5013C18.0426 29.3491 17.996 29.1764 17.9959 29.0005C17.9957 28.8247 18.0419 28.6519 18.1298 28.4995L21.2798 22.9995H16.9998C16.8253 22.9985 16.6541 22.9518 16.5032 22.8641C16.3524 22.7764 16.2271 22.6507 16.1398 22.4995C16.0521 22.3475 16.0059 22.1751 16.0059 21.9995C16.0059 21.824 16.0521 21.6516 16.1398 21.4995L20.1398 14.4995C20.2724 14.2688 20.4913 14.1002 20.7482 14.0308C21.0051 13.9614 21.2791 13.9969 21.5098 14.1295C21.7406 14.2621 21.9092 14.481 21.9786 14.7379C22.048 14.9948 22.0124 15.2688 21.8798 15.4995L18.7198 20.9995H22.9998C23.1743 21.0006 23.3455 21.0473 23.4964 21.135C23.6473 21.2227 23.7726 21.3484 23.8598 21.4995C23.9476 21.6516 23.9938 21.824 23.9938 21.9995C23.9938 22.1751 23.9476 22.3475 23.8598 22.4995L19.8598 29.4995C19.7726 29.6507 19.6473 29.7763 19.4964 29.8641C19.3455 29.9518 19.1743 29.9985 18.9998 29.9995Z" fill="#FF9A32"/>
</svg>
