<svg width="44" height="44" viewBox="0 0 44 44" fill="none" xmlns="http://www.w3.org/2000/svg">
<circle opacity="0.1" cx="22" cy="22" r="22" fill="#11A1FD"/>
<path d="M29.616 16.48L29.63 16.463L25.63 13.223L24.37 14.777L26.437 16.451C25.9242 16.7626 25.5171 17.2212 25.2685 17.7673C25.0199 18.3134 24.9413 18.9217 25.043 19.513C25.193 20.412 25.812 21.189 26.613 21.624C27.508 22.111 28.293 22.066 28.991 21.818L28.976 28C28.9772 28.1656 28.9371 28.3289 28.8593 28.475C28.7816 28.6212 28.6686 28.7457 28.5306 28.8373C28.3926 28.9288 28.2339 28.9845 28.069 28.9993C27.9041 29.0141 27.7381 28.9875 27.586 28.922C27.4669 28.8711 27.3589 28.7973 27.268 28.705C27.1756 28.6124 27.1023 28.5024 27.0523 28.3815C27.0024 28.2605 26.9768 28.1309 26.977 28L27 26C27.001 25.6064 26.924 25.2165 26.7735 24.8528C26.623 24.4891 26.4019 24.1588 26.123 23.881C25.8444 23.6018 25.5135 23.3803 25.1492 23.2291C24.7849 23.0779 24.3944 23.0001 24 23H23V15C23 14.4696 22.7893 13.9609 22.4142 13.5858C22.0391 13.2107 21.5304 13 21 13H14C13.4696 13 12.9609 13.2107 12.5858 13.5858C12.2107 13.9609 12 14.4696 12 15V29C12 29.5304 12.2107 30.0391 12.5858 30.4142C12.9609 30.7893 13.4696 31 14 31H21C21.5304 31 22.0391 30.7893 22.4142 30.4142C22.7893 30.0391 23 29.5304 23 29V25H24C24.136 25 24.267 25.027 24.391 25.078C24.629 25.1822 24.8187 25.3726 24.922 25.611C24.9739 25.7341 25.0004 25.8664 25 26L24.976 28C24.976 28.406 25.055 28.799 25.212 29.168C25.363 29.527 25.58 29.848 25.853 30.119C26.1306 30.3995 26.4613 30.6219 26.8258 30.7732C27.1903 30.9245 27.5813 31.0016 27.976 31C28.382 31 28.774 30.922 29.144 30.764C29.502 30.614 29.824 30.397 30.095 30.123C30.375 29.845 30.597 29.5142 30.7482 29.1498C30.8994 28.7853 30.9768 28.3945 30.976 28L31 19C30.999 18.4976 30.8717 18.0035 30.6299 17.5632C30.3881 17.1229 30.0394 16.7504 29.616 16.48ZM28 20C27.7348 20 27.4804 19.8946 27.2929 19.7071C27.1054 19.5196 27 19.2652 27 19C27 18.7348 27.1054 18.4804 27.2929 18.2929C27.4804 18.1054 27.7348 18 28 18C28.2652 18 28.5196 18.1054 28.7071 18.2929C28.8946 18.4804 29 18.7348 29 19C29 19.2652 28.8946 19.5196 28.7071 19.7071C28.5196 19.8946 28.2652 20 28 20Z" fill="#11A1FD"/>
<path d="M17 18.75C17 18.338 17.338 18 17.75 18H18.25C18.662 18 19 18.338 19 18.75V19.25C19 19.662 18.662 20 18.25 20H17.75C17.5513 19.9992 17.361 19.9199 17.2205 19.7795C17.0801 19.639 17.0008 19.4487 17 19.25V18.75Z" fill="#E8F6FF"/>
<path d="M20 26H16V25H17V22H16V21H19V25H20V26Z" fill="#E8F6FF"/>
</svg>
