<svg width="16" height="17" viewBox="0 0 16 17" fill="none" xmlns="http://www.w3.org/2000/svg">
<path d="M13.64 2.85C12.8999 2.10485 12.0196 1.51356 11.0499 1.11023C10.0802 0.706901 9.04024 0.499506 7.99 0.500001C3.57 0.500001 0 4.08 0 8.5C0 12.92 3.57 16.5 7.99 16.5C11.72 16.5 14.83 13.95 15.72 10.5H13.64C13.2281 11.6695 12.4633 12.6824 11.4513 13.3988C10.4393 14.1153 9.22994 14.5 7.99 14.5C4.68 14.5 1.99 11.81 1.99 8.5C1.99 5.19 4.68 2.5 7.99 2.5C9.65 2.5 11.13 3.19 12.21 4.28L8.99 7.5H15.99V0.500001L13.64 2.85Z" fill="#11A1FD"/>
</svg>
