<svg width="44" height="44" viewBox="0 0 44 44" fill="none" xmlns="http://www.w3.org/2000/svg">
<circle opacity="0.1" cx="22" cy="22" r="22" fill="#11A1FD"/>
<path d="M27 31V29C27 27.9391 26.5786 26.9217 25.8284 26.1716C25.0783 25.4214 24.0609 25 23 25H15C13.9391 25 12.9217 25.4214 12.1716 26.1716C11.4214 26.9217 11 27.9391 11 29V31" stroke="#11A1FD" stroke-width="2" stroke-linecap="round" stroke-linejoin="round"/>
<path d="M19 21C21.2091 21 23 19.2091 23 17C23 14.7909 21.2091 13 19 13C16.7909 13 15 14.7909 15 17C15 19.2091 16.7909 21 19 21Z" stroke="#11A1FD" stroke-width="2" stroke-linecap="round" stroke-linejoin="round"/>
<path d="M33 31.0009V29.0009C32.9993 28.1146 32.7044 27.2536 32.1614 26.5532C31.6184 25.8527 30.8581 25.3524 30 25.1309" stroke="#11A1FD" stroke-width="2" stroke-linecap="round" stroke-linejoin="round"/>
<path d="M26 13.1309C26.8604 13.3512 27.623 13.8516 28.1676 14.5532C28.7122 15.2548 29.0078 16.1177 29.0078 17.0059C29.0078 17.894 28.7122 18.7569 28.1676 19.4585C27.623 20.1602 26.8604 20.6606 26 20.8809" stroke="#11A1FD" stroke-width="2" stroke-linecap="round" stroke-linejoin="round"/>
</svg>
